<mxfile host="app.diagrams.net" agent="Mozilla/5.0 (Windows NT 10.0; Win64; x64) AppleWebKit/537.36 (KHTML, like Gecko) Chrome/139.0.0.0 Safari/537.36" version="26.0.1">
  <diagram name="Page-1" id="t5wvBrW7OfFtpL0dQZ_L">
    <mxGraphModel dx="662" dy="343" grid="1" gridSize="10" guides="1" tooltips="1" connect="1" arrows="1" fold="1" page="1" pageScale="1" pageWidth="850" pageHeight="1100" math="0" shadow="0">
      <root>
        <mxCell id="0" />
        <mxCell id="1" parent="0" />
        <mxCell id="mrh5kNDZQw7MFE10OMg3-9" style="edgeStyle=orthogonalEdgeStyle;rounded=0;orthogonalLoop=1;jettySize=auto;html=1;exitX=0.5;exitY=1;exitDx=0;exitDy=0;" edge="1" parent="1" source="mrh5kNDZQw7MFE10OMg3-1" target="mrh5kNDZQw7MFE10OMg3-2">
          <mxGeometry relative="1" as="geometry" />
        </mxCell>
        <mxCell id="mrh5kNDZQw7MFE10OMg3-1" value="Data Collection" style="rounded=0;whiteSpace=wrap;html=1;" vertex="1" parent="1">
          <mxGeometry x="350" y="190" width="120" height="60" as="geometry" />
        </mxCell>
        <mxCell id="mrh5kNDZQw7MFE10OMg3-10" style="edgeStyle=orthogonalEdgeStyle;rounded=0;orthogonalLoop=1;jettySize=auto;html=1;exitX=0.5;exitY=1;exitDx=0;exitDy=0;entryX=0.5;entryY=0;entryDx=0;entryDy=0;" edge="1" parent="1" source="mrh5kNDZQw7MFE10OMg3-2" target="mrh5kNDZQw7MFE10OMg3-3">
          <mxGeometry relative="1" as="geometry" />
        </mxCell>
        <mxCell id="mrh5kNDZQw7MFE10OMg3-2" value="Data Cleaning" style="rounded=0;whiteSpace=wrap;html=1;" vertex="1" parent="1">
          <mxGeometry x="350" y="290" width="120" height="60" as="geometry" />
        </mxCell>
        <mxCell id="mrh5kNDZQw7MFE10OMg3-11" style="edgeStyle=orthogonalEdgeStyle;rounded=0;orthogonalLoop=1;jettySize=auto;html=1;exitX=1;exitY=0.5;exitDx=0;exitDy=0;entryX=0;entryY=0.5;entryDx=0;entryDy=0;" edge="1" parent="1" source="mrh5kNDZQw7MFE10OMg3-3" target="mrh5kNDZQw7MFE10OMg3-4">
          <mxGeometry relative="1" as="geometry" />
        </mxCell>
        <mxCell id="mrh5kNDZQw7MFE10OMg3-16" value="&lt;b&gt;RQ1&lt;/b&gt;" style="edgeLabel;html=1;align=center;verticalAlign=middle;resizable=0;points=[];" vertex="1" connectable="0" parent="mrh5kNDZQw7MFE10OMg3-11">
          <mxGeometry x="-0.4347" y="-2" relative="1" as="geometry">
            <mxPoint x="-17" y="6" as="offset" />
          </mxGeometry>
        </mxCell>
        <mxCell id="mrh5kNDZQw7MFE10OMg3-3" value="Data Exploratory" style="rounded=0;whiteSpace=wrap;html=1;" vertex="1" parent="1">
          <mxGeometry x="350" y="390" width="120" height="60" as="geometry" />
        </mxCell>
        <mxCell id="mrh5kNDZQw7MFE10OMg3-12" style="edgeStyle=orthogonalEdgeStyle;rounded=0;orthogonalLoop=1;jettySize=auto;html=1;exitX=0.5;exitY=1;exitDx=0;exitDy=0;entryX=0.5;entryY=0;entryDx=0;entryDy=0;" edge="1" parent="1" source="mrh5kNDZQw7MFE10OMg3-4" target="mrh5kNDZQw7MFE10OMg3-5">
          <mxGeometry relative="1" as="geometry" />
        </mxCell>
        <mxCell id="mrh5kNDZQw7MFE10OMg3-4" value="Data Preprocessing" style="rounded=0;whiteSpace=wrap;html=1;" vertex="1" parent="1">
          <mxGeometry x="520" y="190" width="120" height="60" as="geometry" />
        </mxCell>
        <mxCell id="mrh5kNDZQw7MFE10OMg3-13" style="edgeStyle=orthogonalEdgeStyle;rounded=0;orthogonalLoop=1;jettySize=auto;html=1;exitX=0.5;exitY=1;exitDx=0;exitDy=0;entryX=0.5;entryY=0;entryDx=0;entryDy=0;" edge="1" parent="1" source="mrh5kNDZQw7MFE10OMg3-5" target="mrh5kNDZQw7MFE10OMg3-6">
          <mxGeometry relative="1" as="geometry" />
        </mxCell>
        <mxCell id="mrh5kNDZQw7MFE10OMg3-5" value="Feature Engineering" style="rounded=0;whiteSpace=wrap;html=1;" vertex="1" parent="1">
          <mxGeometry x="520" y="290" width="120" height="60" as="geometry" />
        </mxCell>
        <mxCell id="mrh5kNDZQw7MFE10OMg3-14" style="edgeStyle=orthogonalEdgeStyle;rounded=0;orthogonalLoop=1;jettySize=auto;html=1;exitX=1;exitY=0.5;exitDx=0;exitDy=0;entryX=0;entryY=0.5;entryDx=0;entryDy=0;" edge="1" parent="1" source="mrh5kNDZQw7MFE10OMg3-6" target="mrh5kNDZQw7MFE10OMg3-7">
          <mxGeometry relative="1" as="geometry" />
        </mxCell>
        <mxCell id="mrh5kNDZQw7MFE10OMg3-17" value="&lt;b&gt;RQ2&lt;/b&gt;" style="edgeLabel;html=1;align=center;verticalAlign=middle;resizable=0;points=[];" vertex="1" connectable="0" parent="mrh5kNDZQw7MFE10OMg3-14">
          <mxGeometry x="-0.5067" y="1" relative="1" as="geometry">
            <mxPoint x="-14" y="-3" as="offset" />
          </mxGeometry>
        </mxCell>
        <mxCell id="mrh5kNDZQw7MFE10OMg3-6" value="Model Training" style="rounded=0;whiteSpace=wrap;html=1;" vertex="1" parent="1">
          <mxGeometry x="520" y="390" width="120" height="60" as="geometry" />
        </mxCell>
        <mxCell id="mrh5kNDZQw7MFE10OMg3-15" style="edgeStyle=orthogonalEdgeStyle;rounded=0;orthogonalLoop=1;jettySize=auto;html=1;exitX=0.5;exitY=1;exitDx=0;exitDy=0;entryX=0.5;entryY=0;entryDx=0;entryDy=0;" edge="1" parent="1" source="mrh5kNDZQw7MFE10OMg3-7" target="mrh5kNDZQw7MFE10OMg3-8">
          <mxGeometry relative="1" as="geometry" />
        </mxCell>
        <mxCell id="mrh5kNDZQw7MFE10OMg3-7" value="Evaluation" style="rounded=0;whiteSpace=wrap;html=1;" vertex="1" parent="1">
          <mxGeometry x="690" y="190" width="120" height="60" as="geometry" />
        </mxCell>
        <mxCell id="mrh5kNDZQw7MFE10OMg3-8" value="Dashboard Deployment" style="rounded=0;whiteSpace=wrap;html=1;" vertex="1" parent="1">
          <mxGeometry x="690" y="290" width="120" height="60" as="geometry" />
        </mxCell>
        <mxCell id="mrh5kNDZQw7MFE10OMg3-18" value="&lt;b&gt;RQ3&lt;/b&gt;" style="edgeLabel;html=1;align=center;verticalAlign=middle;resizable=0;points=[];" vertex="1" connectable="0" parent="1">
          <mxGeometry x="730.0044827586207" y="269.9951724137933" as="geometry" />
        </mxCell>
      </root>
    </mxGraphModel>
  </diagram>
</mxfile>
